 <svg version="1.0" xmlns="http://www.w3.org/2000/svg" width="700.000000pt" height="1183.000000pt" viewBox="0 0 700.000000 1183.000000" preserveAspectRatio="xMidYMid meet">
<metadata>
Created by potrace 1.12, written by Peter Selinger 2001-2015
</metadata>
<g transform="translate(0.000000,1183.000000) scale(0.100000,-0.100000)" fill="#000000" stroke="none">
<path d="M450 8465 l0 -3115 3120 0 3120 0 0 3115 0 3115 -3120 0 -3120 0 0
-3115z m5870 0 l0 -2755 -2755 0 -2755 0 0 2755 0 2755 2755 0 2755 0 0 -2755z"></path>
<path d="M1770 8470 l0 -1800 1805 0 1805 0 -2 1798 -3 1797 -1802 3 -1803 2
0 -1800z m3268 -2 l-3 -1463 -1462 -3 -1463 -2 0 1465 0 1465 1465 0 1465 0
-2 -1462z"></path>
<path d="M6275 3243 c-91 -24 -128 -130 -85 -245 34 -91 156 -222 278 -300
l30 -18 79 64 c133 108 200 195 227 299 23 89 -4 166 -69 193 -71 29 -147 5
-208 -67 l-37 -43 -16 22 c-49 71 -136 112 -199 95z"></path>
<path d="M181 2024 c-44 -37 -44 -91 0 -128 39 -33 79 -33 117 -1 l30 25 3227
2 c2958 3 3229 4 3238 19 6 9 7 24 4 33 -6 15 -255 16 -3236 16 l-3229 0 -30
30 c-39 38 -79 39 -121 4z"></path>
<path d="M259 1784 c-17 -20 -16 -88 1 -109 30 -36 100 -4 100 46 0 28 35 11
51 -24 18 -40 69 -50 91 -18 14 20 14 20 31 1 20 -24 60 -26 81 -4 18 18 21
76 6 105 -15 27 -75 26 -91 -2 l-11 -21 -14 21 c-19 26 -68 28 -86 3 -7 -10
-24 -18 -38 -18 -14 0 -31 8 -38 18 -16 22 -65 24 -83 2z m56 -55 c0 -24 -5
-34 -15 -34 -16 0 -25 37 -16 62 10 26 31 8 31 -28z m160 0 c0 -24 -5 -34 -15
-34 -16 0 -25 37 -16 62 10 26 31 8 31 -28z m121 16 c6 -24 -9 -55 -27 -55
-12 0 -21 38 -14 60 9 28 33 25 41 -5z"></path>
<path d="M365 1691 c-8 -15 3 -31 21 -31 9 0 14 7 12 17 -4 20 -24 28 -33 14z"></path>
<path d="M3530 1539 c-162 -15 -307 -90 -421 -217 -64 -72 -134 -214 -150
-306 -18 -105 -7 -256 24 -346 54 -153 183 -297 330 -368 109 -53 171 -67 302
-66 94 1 122 5 195 31 202 69 359 231 422 433 19 61 23 97 23 190 -1 131 -16
195 -73 305 -46 89 -181 226 -267 272 -112 59 -250 85 -385 72z m129 -511
c116 -67 211 -127 211 -134 0 -16 -419 -256 -436 -250 -11 4 -14 51 -14 249 0
230 2 257 21 257 4 0 102 -55 218 -122z"></path>
<path d="M1901 1069 c-84 -49 -155 -89 -157 -89 -2 0 -4 38 -4 85 l0 85 -55 0
-55 0 0 -235 0 -235 55 0 55 0 0 85 c0 47 2 85 4 85 2 0 74 -41 160 -91 86
-49 161 -87 166 -84 16 10 13 485 -2 484 -7 0 -82 -41 -167 -90z"></path>
<path d="M5027 1153 c-11 -10 -8 -483 2 -483 5 0 80 41 166 90 86 50 159 90
161 90 2 0 4 -38 4 -85 l0 -85 55 0 55 0 0 235 0 235 -55 0 -55 0 0 -85 c0
-47 -2 -85 -6 -85 -3 0 -75 41 -160 90 -170 99 -158 93 -167 83z"></path>
<path d="M6648 1133 l-3 -28 -120 -5 c-135 -6 -167 -17 -211 -76 -21 -27 -29
-50 -32 -93 -4 -51 -1 -61 22 -87 l25 -29 1 70 c0 82 13 111 59 142 30 20 46
23 143 23 101 0 110 -2 115 -20 3 -11 10 -20 15 -20 11 0 128 69 128 75 0 6
-120 75 -130 75 -5 0 -10 -12 -12 -27z"></path>
<path d="M703 1111 c-12 -15 -40 -33 -65 -40 -55 -17 -70 -29 -153 -126 -118
-138 -157 -175 -197 -186 -28 -7 -38 -15 -38 -29 0 -15 7 -20 25 -20 53 0 103
39 210 164 111 129 140 156 175 156 16 0 20 -6 20 -30 0 -16 2 -30 4 -30 12 0
146 83 144 89 -5 13 -85 81 -94 80 -5 0 -19 -13 -31 -28z"></path>
<path d="M250 1072 c0 -13 12 -23 43 -32 27 -8 56 -28 84 -57 39 -44 41 -45
52 -24 10 18 6 26 -26 62 -40 44 -86 69 -128 69 -18 0 -25 -5 -25 -18z"></path>
<path d="M6786 1003 c-3 -3 -3 -29 0 -58 9 -73 -15 -121 -73 -147 -34 -15 -62
-18 -140 -16 -93 3 -98 4 -101 26 -2 12 -6 22 -9 22 -10 0 -133 -72 -133 -78
0 -6 100 -66 133 -80 4 -2 7 10 7 26 l0 30 118 4 c126 5 156 14 204 65 15 15
32 41 37 56 14 35 14 102 1 126 -10 20 -35 33 -44 24z"></path>
<path d="M523 834 c-9 -23 54 -82 109 -102 42 -14 48 -20 48 -44 0 -16 4 -28
9 -28 19 0 131 71 131 83 0 11 -118 87 -135 87 -3 0 -5 -13 -5 -30 0 -41 -21
-39 -86 10 -60 45 -62 46 -71 24z"></path>
</g>
</svg>