<?xml version="1.0" encoding="UTF-8" standalone="no"?>
<!-- Created with Inkscape (http://www.inkscape.org/) -->

<svg
   xmlns:dc="http://purl.org/dc/elements/1.1/"
   xmlns:cc="http://creativecommons.org/ns#"
   xmlns:rdf="http://www.w3.org/1999/02/22-rdf-syntax-ns#"
   xmlns:svg="http://www.w3.org/2000/svg"
   xmlns="http://www.w3.org/2000/svg"
   xmlns:sodipodi="http://sodipodi.sourceforge.net/DTD/sodipodi-0.dtd"
   xmlns:inkscape="http://www.inkscape.org/namespaces/inkscape"
   width="1152"
   height="1152"
   viewBox="0 0 864 864"
   version="1.1"
   id="svg8"
   inkscape:version="0.92.4 (5da689c313, 2019-01-14)"
   sodipodi:docname="RECTANGLE PUZZLE.svg">
  <defs
     id="defs2" />
  <sodipodi:namedview
     id="base"
     pagecolor="#ffffff"
     bordercolor="#666666"
     borderopacity="1.0"
     inkscape:pageopacity="0.0"
     inkscape:pageshadow="2"
     inkscape:zoom="0.49497475"
     inkscape:cx="-1177.6242"
     inkscape:cy="473.36797"
     inkscape:document-units="in"
     inkscape:current-layer="layer1"
     showgrid="false"
     units="px"
     inkscape:window-width="3840"
     inkscape:window-height="2004"
     inkscape:window-x="-16"
     inkscape:window-y="-16"
     inkscape:window-maximized="1" />
  <metadata
     id="metadata5">
    <rdf:RDF>
      <cc:Work
         rdf:about="">
        <dc:format>image/svg+xml</dc:format>
        <dc:type
           rdf:resource="http://purl.org/dc/dcmitype/StillImage" />
        <dc:title></dc:title>
      </cc:Work>
    </rdf:RDF>
  </metadata>
  <g
     inkscape:label="Layer 1"
     inkscape:groupmode="layer"
     id="layer1"
     transform="translate(0,7.8000169)">
    <g
       id="g1159"
       transform="matrix(0.04153124,0,0,0.04078874,78.202581,-104.07726)"
       style="clip-rule:evenodd;fill:#d5f6ff;fill-rule:evenodd;stroke:#060303;stroke-width:5.16677809;stroke-miterlimit:4;stroke-dasharray:none;stroke-opacity:1;image-rendering:optimizeQuality;shape-rendering:geometricPrecision;text-rendering:geometricPrecision">
      <path
         class="fil0"
         d="m 4915.1215,14130.57 c 55,0 149,-53 209,-117 0,0 86,-93 236,-93 214,0 387,173 387,387 0,214 -173,387 -387,387 -150,0 -236,-93 -236,-93 -59,-64 -153,-117 -209,-117 -56,0 -101,72 -101,159 v 1053 h 1053 c 87,0 159,-45 159,-101 0,-55 -53,-149 -117,-209 0,0 -93,-86 -93,-236 0,-214 173,-387 387,-387 214,0 387,173 387,387 0,150 -93,236 -93,236 -64,59 -117,153 -117,209 0,56 72,101 159,101 h 1053 v -1053 c 0,-87 -45,-159 -101,-159 -55,0 -149,52 -209,117 0,0 -86,93 -236,93 -214,0 -387,-173 -387,-387 0,-214 173,-387 387,-387 150,0 236,93 236,93 59,64 153,117 209,117 56,0 101,-72 101,-159 v -1053 h -2778 v 1053 c 0,87 45,159 101,159 z"
         id="path1011"
         inkscape:connector-curvature="0"
         style="fill:#d5f6ff;fill-rule:nonzero;stroke:#060303;stroke-width:5.16677809;stroke-miterlimit:4;stroke-dasharray:none;stroke-opacity:1" />
      <path
         class="fil0"
         d="m 10268.122,22817.569 c -55,0 -149,52 -209,117 0,0 -86.0005,93 -236.0005,93 -214,0 -387,-173 -387,-387 0,-214 173,-387 387,-387 150,0 236.0005,93 236.0005,93 59,64 153,117 209,117 56,0 101,-72 101,-159 v -1053 H 9316.1215 c -87,0 -159,45 -159,101 0,55 53,149 117,209 0,0 93,86 93,236 0,214 -173,387 -387,387 -214,0 -387,-173 -387,-387 0,-150 93,-236 93,-236 64,-59 117,-153 117,-209 0,-56 -72,-101 -159,-101 h -1053 v 1053 c 0,87 45,159 101,159 55,0 149,-53 209,-117 0,0 86,-93 236,-93 214,0 387,173 387,387 0,214 -173,387 -387,387 -150,0 -236,-93 -236,-93 -59,-64 -153,-117 -209,-117 -56,0 -101,72 -101,159 v 1053 h 2778.0005 v -1053 c 0,-87 -45,-159 -101,-159 z"
         id="path1013"
         inkscape:connector-curvature="0"
         style="fill:#d5f6ff;fill-rule:nonzero;stroke:#060303;stroke-width:5.16677809;stroke-miterlimit:4;stroke-dasharray:none;stroke-opacity:1" />
      <path
         class="fil0"
         d="m 3248.1215,21150.569 c 0,-55 -53,-149 -117,-209 0,0 -93,-86 -93,-236 0,-214 173,-387 387,-387 214,0 387,173 387,387 0,150 -93,236 -93,236 -64,59 -117,153 -117,209 0,56 72,101 159,101 h 1053 v -1053 c 0,-87 -45,-159 -101,-159 -55,0 -149,52 -209,117 0,0 -86,93 -236,93 -214,0 -387,-173 -387,-387 0,-214 173,-387 387,-387 150,0 236,93 236,93 59,64 153,117 209,117 56,0 101,-72 101,-159 v -1053 h -1053 c -87,0 -159,45 -159,101 0,55 53,149 117,209 0,0 93,86 93,236 0,214 -173,387 -387,387 -214,0 -387,-173 -387,-387 0,-150 93,-236 93,-236 64,-59 117,-153 117,-209 0,-56 -72,-101 -159,-101 h -1053 v 2778 h 1053 c 87,0 159,-45 159,-101 z"
         id="path1015"
         inkscape:connector-curvature="0"
         style="fill:#d5f6ff;fill-rule:nonzero;stroke:#060303;stroke-width:5.16677809;stroke-miterlimit:4;stroke-dasharray:none;stroke-opacity:1" />
      <path
         class="fil0"
         d="m 10470.122,14130.57 c 55,0 149,-53 209,-117 0,0 86,-93 236,-93 214,0 387,173 387,387 0,214 -173,387 -387,387 -150,0 -236,-93 -236,-93 -59,-64 -153,-117 -209,-117 -56,0 -101,72 -101,159 v 1053 h 1053 c 87,0 159,-45 159,-101 0,-55 -53,-149 -117,-209 0,0 -93,-86 -93,-236 0,-214 173,-387 387,-387 214,0 387,173 387,387 0,150 -93,236 -93,236 -64,59 -117,153 -117,209 0,56 72,101 159,101 h 1053 v -1053 c 0,-87 -45,-159 -101,-159 -55,0 -149,53 -209,117 0,0 -86,93 -236,93 -214,0 -387,-173 -387,-387 0,-214 173,-387 387,-387 150,0 236,93 236,93 59,64 153,117 209,117 56,0 101,-72 101,-159 v -1053 h -2778 v 1053 c 0,87 45,159 101,159 z"
         id="path1017"
         inkscape:connector-curvature="0"
         style="fill:#d5f6ff;fill-rule:nonzero;stroke:#060303;stroke-width:5.16677809;stroke-miterlimit:4;stroke-dasharray:none;stroke-opacity:1" />
      <path
         class="fil0"
         d="m 9824.1215,19476.569 c 150,0 236.0005,93 236.0005,93 59,64 153,117 209,117 56,0 101,-72 101,-159 v -1053 H 9317.1215 c -87,0 -159,-45 -159,-101 0,-55 53,-149 117,-209 0,0 93,-86 93,-236 0,-213.999 -173,-386.999 -387,-386.999 -214,0 -387,173 -387,386.999 0,150 93,236 93,236 64,59 117,153 117,209 0,56 -72,101 -159,101 h -1053 v 1053 c 0,87 45,159 101,159 55,0 149,-53 209,-117 0,0 86,-93 236,-93 214,0 387,173 387,387 0,214 -173,387 -387,387 -150,0 -236,-93 -236,-93 -59,-64 -153,-117 -209,-117 -56,0 -101,72 -101,159 v 1053 h 1053 c 87,0 159,45 159,101 0,55 -53,149 -117,209 0,0 -93,86 -93,236 0,214 173,387 387,387 214,0 387,-173 387,-387 0,-150 -93,-236 -93,-236 -64,-59 -117,-153 -117,-209 0,-56 72,-101 159,-101 h 1053.0005 v -1053 c 0,-87 -45,-159 -101,-159 -55,0 -149,52 -209,117 0,0 -86.0005,93 -236.0005,93 -214,0 -387,-173 -387,-387 0,-214 173,-387 387,-387 z"
         id="path1019"
         inkscape:connector-curvature="0"
         style="fill:#d5f6ff;fill-rule:nonzero;stroke:#060303;stroke-width:5.16677809;stroke-miterlimit:4;stroke-dasharray:none;stroke-opacity:1" />
      <path
         class="fil0"
         d="m 4268.1215,16698.57 c 150,0 236,93 236,93 59,64 153,117 209,117 56,0 101,-72 101,-159 v -1053 h -1053 c -87,0 -159,45 -159,101 0,55 53,149 117,209 0,0 93,86 93,236 0,214 -173,387 -387,387 -214,0 -387,-173 -387,-387 0,-150 93,-236 93,-236 64,-59 117,-153 117,-209 0,-56 -72,-101 -159,-101 h -1053 v 2777.999 h 1053 c 87,0 159,45 159,101 0,55 -53,149 -117,209 0,0 -93,86 -93,236 0,214 173,387 387,387 214,0 387,-173 387,-387 0,-150 -93,-236 -93,-236 -64,-59 -117,-153 -117,-209 0,-56 72,-101 159,-101 h 1053 V 17421.57 c 0,-87 -45,-159 -101,-159 -55,0 -149,52 -209,117 0,0 -86,93 -236,93 -214,0 -387,-173 -387,-387 0,-214 173,-387 387,-387 z"
         id="path1021"
         inkscape:connector-curvature="0"
         style="fill:#d5f6ff;fill-rule:nonzero;stroke:#060303;stroke-width:5.16677809;stroke-miterlimit:4;stroke-dasharray:none;stroke-opacity:1" />
      <path
         class="fil0"
         d="m 14872.122,21251.569 h 1053 v -2778 h -1053 c -87,0 -159,45 -159,101 0,55 53,149 117,209 0,0 93,86 93,236 0,214 -173,387 -387,387 -214,0 -387,-173 -387,-387 0,-150 93,-236 93,-236 64,-59 117,-153 117,-209 0,-56 -72,-101 -159,-101 h -1053 v 1053 c 0,87 45,159 101,159 55,0 149,-53 209,-117 0,0 86,-93 236,-93 214,0 387,173 387,387 0,214 -173,387 -387,387 -150,0 -236,-93 -236,-93 -59,-64 -153,-117 -209,-117 -56,0 -101,72 -101,159 v 1053 h 1053 c 87,0 159,45 159,101 0,55 -52,149 -117,209 0,0 -93,86 -93,236 0,214 173,387 387,387 214,0 387,-173 387,-387 0,-150 -93,-236 -93,-236 -64,-59 -117,-153 -117,-209 0,-56 72,-101 159,-101 z"
         id="path1023"
         inkscape:connector-curvature="0"
         style="fill:#d5f6ff;fill-rule:nonzero;stroke:#060303;stroke-width:5.16677809;stroke-miterlimit:4;stroke-dasharray:none;stroke-opacity:1" />
      <path
         class="fil0"
         d="m 14872.122,18473.569 h 1053 V 15695.57 h -1053 c -87,0 -159,45 -159,101 0,55 53,149 117,209 0,0 93,86 93,236 0,214 -173,387 -387,387 -214,0 -387,-173 -387,-387 0,-150 93,-236 93,-236 64,-59 117,-153 117,-209 0,-56 -72,-101 -159,-101 h -1053 v 1053 c 0,87 45,159 101,159 55,0 149,-53 209,-117 0,0 86,-93 236,-93 214,0 387,173 387,387 0,214 -173,387 -387,387 -150,0 -236,-93 -236,-93 -59,-64 -153,-117 -209,-117 -56,0 -101,72 -101,159 v 1052.999 h 1053 c 87,0 159,45 159,101 0,55 -53,149 -117,209 0,0 -93,86 -93,236 0,214 173,387 387,387 214,0 387,-173 387,-387 0,-150 -93,-236 -93,-236 -64,-59 -117,-153 -117,-209 0,-56 72,-101 159,-101 z"
         id="path1025"
         inkscape:connector-curvature="0"
         style="fill:#d5f6ff;fill-rule:nonzero;stroke:#060303;stroke-width:5.16677809;stroke-miterlimit:4;stroke-dasharray:none;stroke-opacity:1" />
      <path
         class="fil0"
         d="m 5359.1215,22253.569 c -150,0 -236,93 -236,93 -59,64 -153,117 -209,117 -56,0 -101,-72 -101,-159 v -1053 h -1053 c -87,0 -159,-45 -159,-101 0,-55 53,-149 117,-209 0,0 93,-86 93,-236 0,-214 -173,-387 -387,-387 -214,0 -387,173 -387,387 0,150 93,236 93,236 64,59 117,153 117,209 0,56 -72,101 -159,101 h -1053 v 2778 h 2778 v -1053 c 0,-87 45,-159 101,-159 55,0 149,52 209,117 0,0 86,93 236,93 214,0 387,-173 387,-387 0,-214 -173,-387 -387,-387 z"
         id="path1027"
         inkscape:connector-curvature="0"
         style="fill:#d5f6ff;fill-rule:nonzero;stroke:#060303;stroke-width:5.16677809;stroke-miterlimit:4;stroke-dasharray:none;stroke-opacity:1" />
      <path
         class="fil0"
         d="m 8137.1215,22253.569 c -150,0 -236,93 -236,93 -59,64 -153,117 -209,117 -56,0 -101,-72 -101,-159 v -1053 h -1053 c -87,0 -159,-45 -159,-101 0,-55 53,-149 117,-209 0,0 93,-86 93,-236 0,-214 -173,-387 -387,-387 -214,0 -387,173 -387,387 0,150 93,236 93,236 64,59 117,153 117,209 0,56 -72,101 -159,101 h -1053 v 1053 c 0,87 45,159 101,159 55,0 149,-53 209,-117 0,0 86,-93 236,-93 214,0 387,173 387,387 0,214 -173,387 -387,387 -150,0 -236,-93 -236,-93 -59,-64 -153,-117 -209,-117 -56,0 -101,72 -101,159 v 1053 h 2778 v -1053 c 0,-87 45,-159 101,-159 55,0 149,52 209,117 0,0 86,93 236,93 214,0 387,-173 387,-387 0,-214 -173,-387 -387,-387 z"
         id="path1029"
         inkscape:connector-curvature="0"
         style="fill:#d5f6ff;fill-rule:nonzero;stroke:#060303;stroke-width:5.16677809;stroke-miterlimit:4;stroke-dasharray:none;stroke-opacity:1" />
      <path
         class="fil0"
         d="m 8137.1215,19476.569 c -150,0 -236,93 -236,93 -59,64 -153,117 -209,117 -56,0 -101,-72 -101,-159 v -1053 h -1053 c -87,0 -159,45 -159,101 0,55 53,149 117,209 0,0 93,86 93,236 0,214 -173,387 -387,387 -214,0 -387,-173 -387,-387 0,-150 93,-236 93,-236 64,-59 117,-153 117,-209 0,-55 -71,-101 -159,-101 h -1053 v 1053 c 0,87 -45,159 -101,159 -55,0 -149,-53 -209,-117 0,0 -86,-93 -236,-93 -214,0 -387,173 -387,387 0,214 173,387 387,387 150,0 236,-93 236,-93 59,-64 153,-117 209,-117 56,0 101,72 101,159 v 1053 h 1053 c 87,0 159,-45 159,-101 0,-55 -53,-149 -117,-209 0,0 -93,-86 -93,-236 0,-214 173,-387 387,-387 214,0 387,173 387,387 0,150 -93,236 -93,236 -64,59 -117,153 -117,209 0,56 72,101 159,101 h 1053 v -1053 c 0,-87 45,-159 101,-159 55,0 149,53 209,117 0,0 86,93 236,93 214,0 387,-173 387,-387 0,-214 -173,-387 -387,-387 z"
         id="path1031"
         inkscape:connector-curvature="0"
         style="fill:#d5f6ff;fill-rule:nonzero;stroke:#060303;stroke-width:5.16677809;stroke-miterlimit:4;stroke-dasharray:none;stroke-opacity:1" />
      <path
         class="fil0"
         d="m 10915.122,16698.57 c -150,0 -236,93 -236,93 -59,64 -153,117 -209,117 -56,0 -101,-72 -101,-159 v -1053 H 9316.1215 c -87,0 -159,45 -159,101 0,55 53,149 117,209 0,0 93,86 93,236 0,214 -173,387 -387,387 -214,0 -387,-173 -387,-387 0,-150 93,-236 93,-236 64,-59 117,-153 117,-209 0,-56 -72,-101 -159,-101 h -1053 v 1053 c 0,87 -45,159 -101,159 -55,0 -149,-53 -209,-117 0,0 -86,-93 -236,-93 -214,0 -387,173 -387,387 0,214 173,387 387,387 150,0 236,-93 236,-93 59,-64 153,-117 209,-117 56,0 101,72 101,159 v 1052.999 h 1053 c 87,0 159,-45 159,-101 0,-55 -53,-149 -117,-209 0,0 -93,-86 -93,-236 0,-213.999 173,-386.999 387,-386.999 214,0 387,173 387,386.999 0,150 -93,236 -93,236 -64,59 -117,153 -117,209 0,56 72,101 159,101 H 10369.122 V 17421.57 c 0,-87 45,-159 101,-159 55,0 149,53 209,117 0,0 86,93 236,93 214,0 387,-173 387,-387 0,-214 -173,-387 -387,-387 z"
         id="path1033"
         inkscape:connector-curvature="0"
         style="fill:#d5f6ff;fill-rule:nonzero;stroke:#060303;stroke-width:5.16677809;stroke-miterlimit:4;stroke-dasharray:none;stroke-opacity:1" />
      <path
         class="fil0"
         d="m 13692.122,16698.57 c -150,0 -236,93 -236,93 -59,64 -153,117 -209,117 -56,0 -101,-72 -101,-159 v -1053 h -1053 c -87,0 -159,-45 -159,-101 0,-55 53,-149 117,-209 0,0 93,-86 93,-236 0,-214 -173,-387 -387,-387 -214,0 -387,173 -387,387 0,150 93,236 93,236 64,59 117,153 117,209 0,56 -72,101 -159,101 h -1053 v 1053 c 0,87 45,159 101,159 55,0 149,-53 209,-117 0,0 86,-93 236,-93 214,0 387,173 387,387 0,214 -173,387 -387,387 -150,0 -236,-93 -236,-93 -59,-64 -153,-117 -209,-117 -56,0 -101,72 -101,159 v 1052.999 h 1053 c 87,0 159,-45 159,-101 0,-55 -53,-149 -117,-209 0,0 -93,-86 -93,-236 0,-213.999 173,-386.999 387,-386.999 214,0 387,173 387,386.999 0,150 -93,236 -93,236 -64,59 -117,153 -117,209 0,56 72,101 159,101 h 1053 V 17421.57 c 0,-87 45,-159 101,-159 55,0 149,53 209,117 0,0 86,93 236,93 214,0 387,-173 387,-387 0,-214 -173,-387 -387,-387 z"
         id="path1035"
         inkscape:connector-curvature="0"
         style="fill:#d5f6ff;fill-rule:nonzero;stroke:#060303;stroke-width:5.16677809;stroke-miterlimit:4;stroke-dasharray:none;stroke-opacity:1" />
      <path
         class="fil0"
         d="m 13692.122,19476.569 c -150,0 -236,93 -236,93 -59,64 -153,117 -209,117 -56,0 -101,-72 -101,-159 v -1053 h -1053 c -87,0 -159,-45 -159,-101 0,-55 53,-149 117,-209 0,0 93,-86 93,-236 0,-214 -173,-387 -387,-387 -214,0 -387,173 -387,387 0,150 93,236 93,236 64,59 117,153 117,209 0,56 -72,101 -159,101 h -1053 v 1053 c 0,87 -45,159 -101,159 -55,0 -149,-53 -209,-117 0,0 -86.0005,-93 -236.0005,-93 -214,0 -387,173 -387,387 0,214 173,387 387,387 150,0 236.0005,-93 236.0005,-93 59,-64 153,-117 209,-117 56,0 101,72 101,159 v 1053 h 1053 c 87,0 159,45 159,101 0,55 -52,149 -117,209 0,0 -93,86 -93,236 0,214 173,387 387,387 214,0 387,-173 387,-387 0,-150 -93,-236 -93,-236 -64,-59 -117,-153 -117,-209 0,-56 72,-101 159,-101 h 1053 v -1053 c 0,-87 45,-159 101,-159 55,0 149,53 209,117 0,0 86,93 236,93 214,0 387,-173 387,-387 0,-214 -173,-387 -387,-387 z"
         id="path1037"
         inkscape:connector-curvature="0"
         style="fill:#d5f6ff;fill-rule:nonzero;stroke:#060303;stroke-width:5.16677809;stroke-miterlimit:4;stroke-dasharray:none;stroke-opacity:1" />
      <path
         class="fil0"
         d="m 14872.122,21251.569 c -87,0 -159,45 -159,101 0,55 53,149 117,209 0,0 93,86 93,236 0,214 -173,387 -387,387 -214,0 -387,-173 -387,-387 0,-150 93,-236 93,-236 64,-59 117,-153 117,-209 0,-56 -72,-101 -159,-101 h -1053 v 1053 c 0,87 -45,159 -101,159 -55,0 -149,-53 -209,-117 0,0 -86,-93 -236,-93 -214,0 -387,173 -387,387 0,214 173,387 387,387 150,0 236,-93 236,-93 59,-64 153,-117 209,-117 56,0 101,72 101,159 v 1053 h 2778 v -2778 z"
         id="path1039"
         inkscape:connector-curvature="0"
         style="fill:#d5f6ff;fill-rule:nonzero;stroke:#060303;stroke-width:5.16677809;stroke-miterlimit:4;stroke-dasharray:none;stroke-opacity:1" />
      <path
         class="fil0"
         d="m 5359.1215,13920.57 c -150,0 -236,93 -236,93 -59,64 -153,117 -209,117 -56,0 -101,-72 -101,-159 v -1053 h -2778 v 2778 h 1053 c 87,0 159,45 159,101 0,55 -53,149 -117,209 0,0 -93,86 -93,236 0,214 173,387 387,387 214,0 387,-173 387,-387 0,-150 -93,-236 -93,-236 -64,-59 -117,-153 -117,-209 0,-56 72,-101 159,-101 h 1053 v -1053 c 0,-87 45,-159 101,-159 55,0 149,53 209,117 0,0 86,93 236,93 214,0 387,-173 387,-387 0,-214 -173,-387 -387,-387 z"
         id="path1041"
         inkscape:connector-curvature="0"
         style="fill:#d5f6ff;fill-rule:nonzero;stroke:#060303;stroke-width:5.16677809;stroke-miterlimit:4;stroke-dasharray:none;stroke-opacity:1" />
      <path
         class="fil0"
         d="m 10915.122,13920.57 c -150,0 -236,93 -236,93 -59,64 -153,117 -209,117 -56,0 -101,-72 -101,-159 v -1053 H 7591.1215 v 1053 c 0,87 -45,159 -101,159 -55,0 -149,-53 -209,-117 0,0 -86,-93 -236,-93 -214,0 -387,173 -387,387 0,214 173,387 387,387 150,0 236,-93 236,-93 59,-64 153,-117 209,-117 56,0 101,72 101,159 v 1053 h 1053 c 87,0 159,45 159,101 0,55 -53,149 -117,209 0,0 -93,86 -93,236 0,214 173,387 387,387 214,0 387,-173 387,-387 0,-150 -93,-236 -93,-236 -64,-59 -117,-153 -117,-209 0,-56 72,-101 159,-101 h 1053.0005 v -1053 c 0,-87 45,-159 101,-159 55,0 149,53 209,117 0,0 86,93 236,93 214,0 387,-173 387,-387 0,-214 -173,-387 -387,-387 z"
         id="path1043"
         inkscape:connector-curvature="0"
         style="fill:#d5f6ff;fill-rule:nonzero;stroke:#060303;stroke-width:5.16677809;stroke-miterlimit:4;stroke-dasharray:none;stroke-opacity:1" />
      <path
         class="fil0"
         d="m 14872.122,15696.57 h 1053 v -2778 h -2778 v 1053 c 0,87 -45,159 -101,159 -55,0 -149,-53 -209,-117 0,0 -86,-93 -236,-93 -214,0 -387,173 -387,387 0,214 173,387 387,387 150,0 236,-93 236,-93 59,-64 153,-117 209,-117 56,0 101,72 101,159 v 1053 h 1053 c 87,0 159,45 159,101 0,55 -52,149 -117,209 0,0 -93,86 -93,236 0,214 173,387 387,387 214,0 387,-173 387,-387 0,-150 -93,-236 -93,-236 -64,-59 -117,-153 -117,-209 0,-56 72,-101 159,-101 z"
         id="path1045"
         inkscape:connector-curvature="0"
         style="fill:#d5f6ff;fill-rule:nonzero;stroke:#060303;stroke-width:5.16677809;stroke-miterlimit:4;stroke-dasharray:none;stroke-opacity:1" />
      <path
         class="fil0"
         d="m 12602.122,22253.569 c 150,0 236,93 236,93 59,64 153,117 209,117 56,0 101,-72 101,-159 v -1053 h -1053 c -87,0 -159,45 -159,101 0,55 53,149 117,209 0,0 93,86 93,236 0,214 -173,387 -387,387 -214,0 -387,-173 -387,-387 0,-150 93,-236 93,-236 64,-59 117,-153 117,-209 0,-56 -72,-101 -159,-101 h -1053 v 1053 c 0,87 -45,159 -101,159 -55,0 -149,-53 -209,-117 0,0 -86.0005,-93 -236.0005,-93 -214,0 -387,173 -387,387 0,214 173,387 387,387 150,0 236.0005,-93 236.0005,-93 59,-64 153,-117 209,-117 56,0 101,72 101,159 v 1053 h 2778 v -1053 c 0,-87 -45,-159 -101,-159 -55,0 -149,52 -209,117 0,0 -86,93 -236,93 -214,0 -387,-173 -387,-387 0,-214 173,-387 387,-387 z"
         id="path1047"
         inkscape:connector-curvature="0"
         style="fill:#d5f6ff;fill-rule:nonzero;stroke:#060303;stroke-width:5.16677809;stroke-miterlimit:4;stroke-dasharray:none;stroke-opacity:1" />
      <path
         class="fil0"
         d="m 7046.1215,16698.57 c 150,0 236,93 236,93 59,64 153,117 209,117 56,0 101,-72 101,-159 v -1053 h -1053 c -87,0 -159,-45 -159,-101 0,-55 53,-149 117,-209 0,0 93,-86 93,-236 0,-214 -173,-387 -387,-387 -214,0 -387,173 -387,387 0,150 93,236 93,236 64,59 117,153 117,209 0,56 -72,101 -159,101 h -1053 v 1053 c 0,87 -45,159 -101,159 -55,0 -149,-53 -209,-117 0,0 -86,-93 -236,-93 -214,0 -387,173 -387,387 0,214 173,387 387,387 150,0 236,-93 236,-93 59,-64 153,-117 209,-117 56,0 101,72 101,159 v 1052.999 h 1053 c 87,0 159,45 159,101 0,55 -53,149 -117,209 0,0 -93,86 -93,236 0,214 173,387 387,387 214,0 387,-173 387,-387 0,-150 -93,-236 -93,-236 -64,-59 -117,-153 -117,-209 0,-55 71,-101 159,-101 h 1053 V 17421.57 c 0,-87 -45,-159 -101,-159 -55,0 -149,52 -209,117 0,0 -86,93 -236,93 -214,0 -387,-173 -387,-387 0,-214 173,-387 387,-387 z"
         id="path1049"
         inkscape:connector-curvature="0"
         style="fill:#d5f6ff;fill-rule:nonzero;stroke:#060303;stroke-width:5.16677809;stroke-miterlimit:4;stroke-dasharray:none;stroke-opacity:1" />
    </g>
    <rect
       style="opacity:1;fill:#6bc7de;fill-opacity:1;fill-rule:evenodd;stroke:none;stroke-width:3.10605192;stroke-miterlimit:4;stroke-dasharray:none;stroke-dashoffset:0;stroke-opacity:1"
       id="rect2078"
       width="577.07568"
       height="453.41666"
       x="162.71291"
       y="-35.328915" />
  </g>
</svg>
